#!OML:ASF E:\emotionWalksFemale\Project 1\Capture day 1\Session 1\Female1.ASF
:FULLY-SPECIFIED
:DEGREES
184
root 9.59223 15.366 -38.7476 0.213958 -2.08924 0.197167
lowerback 6.13146 0.879135 -0.202715
upperback -4.68269 1.12869 -0.408774
thorax -8.36933 0.549508 -0.467205
lowerneck -4.26219 -7.07553 -9.01455
upperneck 18.0809 -9.2419 2.69794
head 6.77423 -4.87486 1.645
rclavicle 3.13086e-015 1.49089e-015
rhumerus -46.9785 23.2539 -103.72
rradius 33.4356
rwrist 13.0499
rhand -1.90571 -52.8874
rfingers 7.12502
rthumb 23.7638 -81.438
lclavicle 3.13086e-015 1.49089e-015
lhumerus -43.923 -6.29286 90.2939
lradius 36.0932
lwrist -13.8104
lhand -5.93227 -33.3476
lfingers 7.12502
lthumb 19.8975 -4.34624
rfemur -3.95738 20.5026 24.3878
rtibia 26.5319
rfoot -21.0804 -32.7623
rtoes -8.56413
lfemur -6.90307 -22.1169 -26.0801
ltibia 29.0629
lfoot -27.2373 22.4083
ltoes -8.66921
185
root 9.59132 15.3666 -38.7484 0.18232 -2.00154 0.236691
lowerback 6.15169 0.852844 -0.206949
upperback -4.66147 1.0914 -0.429151
thorax -8.35808 0.530873 -0.481457
lowerneck -4.24205 -7.08913 -9.04603
upperneck 18.0802 -9.26321 2.72108
head 6.77458 -4.88567 1.65614
rclavicle 1.18898e-014 -8.54774e-015
rhumerus -47.0299 23.2959 -103.802
rradius 33.35
rwrist 12.6604
rhand -2.83447 -52.2895
rfingers 7.12502
rthumb 22.8728 -80.9531
lclavicle 1.18898e-014 -8.54774e-015
lhumerus -43.9653 -6.3452 90.355
lradius 36.2216
lwrist -13.7301
lhand -6.00922 -32.95
lfingers 7.12502
lthumb 19.8235 -3.94089
rfemur -3.92899 20.4107 24.3561
rtibia 26.5509
rfoot -21.1376 -32.7291
rtoes -8.22738
lfemur -6.88441 -22.1011 -26.1149
ltibia 29.039
lfoot -27.1205 22.4945
ltoes -9.83407
186
root 9.58935 15.3662 -38.7488 0.153274 -1.8716 0.305279
lowerback 6.23556 0.815439 -0.240354
upperback -4.68635 1.0344 -0.468287
thorax -8.43447 0.503386 -0.498222
lowerneck -4.2421 -7.06267 -9.01428
upperneck 18.0751 -9.23006 2.72079
head 6.76907 -4.86766 1.65416
rclavicle 6.53505e-015 -1.68967e-015
rhumerus -47.0856 23.2556 -103.851
rradius 33.3359
rwrist 12.4723
rhand -2.97318 -52.3263
rfingers 7.12502
rthumb 22.7397 -81.0062
lclavicle 6.53505e-015 -1.68967e-015
lhumerus -44.005 -6.3273 90.2983
lradius 36.1621
lwrist -13.7387
lhand -6.07778 -33.2589
lfingers 7.12502
lthumb 19.7576 -4.24303
rfemur -3.8883 20.4146 24.3211
rtibia 26.5726
rfoot -21.26 -32.853
rtoes -8.36816
lfemur -6.86272 -22.1409 -26.1756
ltibia 29.0004
lfoot -27.0269 22.5901
ltoes -10.5232
187
root 9.58581 15.3686 -38.7446 0.191209 -1.80416 0.332602
lowerback 6.03937 0.78047 -0.351115
upperback -4.60899 0.981902 -0.414732
thorax -8.23876 0.486557 -0.368342
lowerneck -4.38971 -7.01226 -9.10457
upperneck 18.0692 -9.14366 2.76292
head 6.7941 -4.82643 1.68377
rclavicle 8.7341e-015 -9.93923e-016
rhumerus -47.0166 23.4537 -103.815
rradius 33.3811
rwrist 12.3607
rhand -2.93532 -52.5467
rfingers 7.12502
rthumb 22.776 -81.2222
lclavicle 8.7341e-015 -9.93923e-016
lhumerus -43.9113 -6.22484 90.3179
lradius 36.1989
lwrist -13.7087
lhand -6.11943 -33.1742
lfingers 7.12502
lthumb 19.7175 -4.15419
rfemur -3.90744 20.5053 24.3132
rtibia 26.6044
rfoot -21.511 -32.8941
rtoes -8.07407
lfemur -6.87857 -22.2469 -26.175
ltibia 28.9556
lfoot -27.0787 22.4371
ltoes -9.67001
188
root 9.58132 15.3689 -38.7482 0.134252 -1.89544 0.369401
lowerback 6.09808 0.788696 -0.486083
upperback -4.56051 0.982694 -0.372167
thorax -8.22398 0.496055 -0.248266
lowerneck -4.47982 -6.95789 -9.19634
upperneck 18.1108 -9.06405 2.83609
head 6.82615 -4.7877 1.72461
rclavicle -1.25483e-015 3.57812e-015
rhumerus -46.9781 23.5951 -103.783
rradius 33.4326
rwrist 12.5212
rhand -2.87976 -52.4894
rfingers 7.12502
rthumb 22.8294 -81.1583
lclavicle -1.25483e-015 3.57812e-015
lhumerus -43.8801 -6.12653 90.329
lradius 36.2676
lwrist -13.7427
lhand -6.23133 -33.0435
lfingers 7.12502
lthumb 19.61 -4.01253
rfemur -3.87087 20.5185 24.2835
rtibia 26.6251
rfoot -21.6751 -32.6731
rtoes -7.24088
lfemur -6.81276 -22.1117 -26.2049
ltibia 28.9246
lfoot -27.0448 22.2525
ltoes -9.31897
189
root 9.5766 15.3687 -38.7535 0.155039 -1.82115 0.445387
lowerback 6.14659 0.750285 -0.646133
upperback -4.56942 0.916434 -0.352532
thorax -8.26509 0.473471 -0.12992
lowerneck -4.51819 -6.91296 -9.25955
upperneck 18.13 -8.99978 2.88026
head 6.84009 -4.7572 1.7527
rclavicle 1.28962e-014 -9.54166e-015
rhumerus -46.92 23.5874 -103.653
rradius 33.4611
rwrist 13.0602
rhand -2.53808 -52.5619
rfingers 7.12502
rthumb 23.1572 -81.19
lclavicle 1.28962e-014 -9.54166e-015
lhumerus -43.8543 -6.03622 90.35
lradius 36.2893
lwrist -13.8114
lhand -5.96721 -32.9086
lfingers 7.12502
lthumb 19.8639 -3.90368
rfemur -3.89369 20.4751 24.2011
rtibia 26.6029
rfoot -21.7035 -32.5887
rtoes -7.03746
lfemur -6.88474 -22.0213 -26.2267
ltibia 28.9253
lfoot -26.8988 22.2441
ltoes -9.75926
190
root 9.57713 15.3679 -38.7472 0.137381 -1.89677 0.455563
lowerback 6.05484 0.77299 -0.639115
upperback -4.53991 0.948865 -0.348421
thorax -8.1795 0.48907 -0.132052
lowerneck -4.64261 -6.87329 -9.25134
upperneck 18.2767 -8.93321 2.85664
head 6.90349 -4.72637 1.74347
rclavicle -5.19325e-015 -1.63003e-014
rhumerus -46.8887 23.5116 -103.538
rradius 33.471
rwrist 13.4807
rhand -2.24133 -52.8521
rfingers 7.12502
rthumb 23.4419 -81.4442
lclavicle -5.19325e-015 -1.63003e-014
lhumerus -43.905 -6.02269 90.3703
lradius 36.3567
lwrist -13.8017
lhand -6.46972 -33.0821
lfingers 7.12502
lthumb 19.3808 -4.02793
rfemur -3.87116 20.3993 24.1608
rtibia 26.5918
rfoot -21.672 -32.4822
rtoes -7.75269
lfemur -6.81592 -22.1514 -26.2972
ltibia 28.9172
lfoot -27.0227 22.4973
ltoes -9.46269
191
root 9.57127 15.3665 -38.7421 0.0457778 -1.56081 0.419169
lowerback 6.07599 0.661394 -0.682835
upperback -4.50972 0.797508 -0.31265
thorax -8.15981 0.418655 -0.0500604
lowerneck -4.80527 -6.80945 -9.21758
upperneck 18.538 -8.83475 2.82938
head 7.0073 -4.6797 1.72933
rclavicle -8.63471e-015 7.45443e-015
rhumerus -46.9243 23.5109 -103.522
rradius 33.4725
rwrist 13.5573
rhand -2.2912 -52.7051
rfingers 7.12502
rthumb 23.3941 -81.3032
lclavicle -8.63471e-015 7.45443e-015
lhumerus -43.9919 -6.01298 90.3806
lradius 36.4511
lwrist -13.7225
lhand -6.32563 -33.18
lfingers 7.12502
lthumb 19.5193 -4.1398
rfemur -3.62328 20.4916 24.3626
rtibia 26.5668
rfoot -21.9476 -32.8628
rtoes -7.56335
lfemur -6.72778 -22.1503 -26.2337
ltibia 28.9178
lfoot -26.925 22.1835
ltoes -9.64763
192
root 9.5765 15.3712 -38.7439 0.206521 -1.84497 0.459912
lowerback 5.98139 0.745474 -0.665795
upperback -4.57798 0.911893 -0.320885
thorax -8.17837 0.473522 -0.0825783
lowerneck -4.88153 -6.71097 -9.26894
upperneck 18.6992 -8.70871 2.93285
head 7.07158 -4.61533 1.77773
rclavicle 9.19379e-016 1.47101e-014
rhumerus -46.9885 23.6549 -103.599
rradius 33.4678
rwrist 13.3248
rhand -2.58699 -52.3895
rfingers 7.12502
rthumb 23.1103 -81.0234
lclavicle 9.19379e-016 1.47101e-014
lhumerus -43.9708 -5.9097 90.3695
lradius 36.4791
lwrist -13.5733
lhand -5.90482 -33.0404
lfingers 7.12502
lthumb 19.9239 -4.04172
rfemur -3.89702 20.4181 24.1378
rtibia 26.5342
rfoot -21.4845 -32.609
rtoes -8.56269
lfemur -6.92417 -22.1802 -26.2564
ltibia 28.9173
lfoot -27.1172 22.2614
ltoes -8.47026
193
root 9.57226 15.3698 -38.7422 0.180842 -1.61017 0.506474
lowerback 5.98522 0.675814 -0.769543
upperback -4.57315 0.808376 -0.320959
thorax -8.17648 0.428822 -0.0110087
lowerneck -4.95593 -6.62962 -9.23976
upperneck 18.8367 -8.6051 2.98136
head 7.12286 -4.5603 1.79433
rclavicle -2.80783e-015 -1.23246e-014
rhumerus -47.0871 23.7521 -103.712
rradius 33.4645
rwrist 12.9336
rhand -2.95184 -52.3616
rfingers 7.12502
rthumb 22.7602 -81.039
lclavicle -2.80783e-015 -1.23246e-014
lhumerus -43.9347 -5.83554 90.3556
lradius 36.3386
lwrist -13.8202
lhand -6.25643 -33.1509
lfingers 7.12502
lthumb 19.5858 -4.11745
rfemur -3.76461 20.5659 24.1958
rtibia 26.5087
rfoot -21.7253 -32.9344
rtoes -8.28297
lfemur -6.91953 -22.2079 -26.2678
ltibia 28.9146
lfoot -27.0547 22.0857
ltoes -8.62417
